<svg width="94" height="118" viewBox="0 0 94 118" fill="none" xmlns="http://www.w3.org/2000/svg">
<rect x="0.5" y="0.5" width="93" height="117" rx="4.5" stroke="#8A38F5" stroke-dasharray="10 5"/>
<rect x="20" y="20" width="54" height="29" rx="14.5" fill="#00B2F3"/>
<path fill-rule="evenodd" clip-rule="evenodd" d="M47 29C53.0489 29 57 35 57 35C57 35 53.0489 41 47 41C40.9511 41 37 35 37 35C37 35 40.9511 29 47 29ZM47 30.7143C49.4556 30.7143 51.4444 32.6321 51.4444 35C51.4444 37.3679 49.4556 39.2857 47 39.2857C44.5444 39.2857 42.5556 37.3679 42.5556 35C42.5556 32.6321 44.5444 30.7143 47 30.7143ZM47 32.6429C48.3511 32.6429 49.4444 33.6971 49.4444 35C49.4444 36.3029 48.3511 37.3571 47 37.3571C45.6511 37.3571 44.5556 36.3029 44.5556 35C44.5556 33.6971 45.6489 32.6429 47 32.6429Z" fill="white"/>
<rect x="20" y="69" width="54" height="29" rx="14.5" fill="#00B2F3"/>
<path fill-rule="evenodd" clip-rule="evenodd" d="M47 78C53.0489 78 57 84 57 84C57 84 53.0489 90 47 90C40.9511 90 37 84 37 84C37 84 40.9511 78 47 78ZM47 79.7143C49.4556 79.7143 51.4444 81.6321 51.4444 84C51.4444 86.3679 49.4556 88.2857 47 88.2857C44.5444 88.2857 42.5556 86.3679 42.5556 84C42.5556 81.6321 44.5444 79.7143 47 79.7143ZM47 81.6429C48.3511 81.6429 49.4444 82.6971 49.4444 84C49.4444 85.3029 48.3511 86.3571 47 86.3571C45.6511 86.3571 44.5556 85.3029 44.5556 84C44.5556 82.6971 45.6489 81.6429 47 81.6429Z" fill="white"/>
</svg>
