<svg width="94" height="118" viewBox="0 0 94 118" fill="none" xmlns="http://www.w3.org/2000/svg">
<rect x="0.5" y="0.5" width="93" height="117" rx="4.5" stroke="#8A38F5" stroke-dasharray="10 5"/>
<rect x="20" y="20" width="54" height="29" rx="14.5" fill="#00B2F3"/>
<path d="M39.8418 39.1211L46.6855 43.1836V39.7354C45.373 38.9557 44.0598 38.1771 42.7451 37.3975L39.8418 39.1211ZM47.3174 39.7354V43.1836L54.1592 39.1221L51.2539 37.3965L47.3174 39.7354ZM43.0605 36.8428L46.6836 38.9951V34.6855L43.0605 32.5342V36.8428ZM47.3154 34.6855V38.9941L50.9375 36.8428V32.5342L47.3154 34.6855ZM51.5693 32.1582V36.8408L54.4688 38.5625V30.4365L51.5693 32.1582ZM39.5322 38.5615L42.4316 36.8398V32.1553L39.5322 30.4336V38.5615ZM43.3682 31.9756L46.9971 34.1299L50.626 31.9756L46.9971 29.8213L43.3682 31.9756ZM47.3154 29.2646L51.2539 31.6025L54.1582 29.8779L47.3154 25.8154V29.2646ZM39.8418 29.8779L42.7451 31.6016C44.057 30.8223 45.3695 30.0439 46.6836 29.2646V25.8145L39.8418 29.8779ZM55.0996 39.3066L55.0508 39.3359L47.0508 44.0859L47 44.1162L46.9492 44.0859C44.282 42.5021 41.6143 40.9199 38.9492 39.3359L38.9004 39.3066V29.6924L38.9492 29.6641L46.9492 24.9141L47 24.8838L47.0508 24.9141L47.1572 24.9766L55.0508 29.6641L55.0996 29.6924V39.3066Z" fill="white" stroke="white" stroke-width="0.2"/>
<rect x="20" y="69" width="54" height="29" rx="14.5" fill="#848484"/>
<path d="M39.8418 88.1211L46.6855 92.1836V88.7354C45.373 87.9557 44.0598 87.1771 42.7451 86.3975L39.8418 88.1211ZM47.3174 88.7354V92.1836L54.1592 88.1221L51.2539 86.3965L47.3174 88.7354ZM43.0605 85.8428L46.6836 87.9951V83.6855L43.0605 81.5342V85.8428ZM47.3154 83.6855V87.9941L50.9375 85.8428V81.5342L47.3154 83.6855ZM51.5693 81.1582V85.8408L54.4688 87.5625V79.4365L51.5693 81.1582ZM39.5322 87.5615L42.4316 85.8398V81.1553L39.5322 79.4336V87.5615ZM43.3682 80.9756L46.9971 83.1299L50.626 80.9756L46.9971 78.8213L43.3682 80.9756ZM47.3154 78.2646L51.2539 80.6025L54.1582 78.8779L47.3154 74.8154V78.2646ZM39.8418 78.8779L42.7451 80.6016C44.057 79.8223 45.3695 79.0439 46.6836 78.2646V74.8145L39.8418 78.8779ZM55.0996 88.3066L55.0508 88.3359L47.0508 93.0859L47 93.1162L46.9492 93.0859C44.282 91.5021 41.6143 89.9199 38.9492 88.3359L38.9004 88.3066V78.6924L38.9492 78.6641L46.9492 73.9141L47 73.8838L47.0508 73.9141L47.1572 73.9766L55.0508 78.6641L55.0996 78.6924V88.3066Z" fill="white" stroke="white" stroke-width="0.2"/>
</svg>
