<svg width="94" height="118" viewBox="0 0 94 118" fill="none" xmlns="http://www.w3.org/2000/svg">
<rect x="0.5" y="0.5" width="93" height="117" rx="4.5" stroke="#8A38F5" stroke-dasharray="10 5"/>
<rect x="20" y="20" width="54" height="29" rx="14.5" fill="#00B2F3"/>
<path fill-rule="evenodd" clip-rule="evenodd" d="M44.2164 40.9665C44.1161 41.4282 44.4132 41.8825 44.8799 41.9807C45.3465 42.0799 45.8057 41.7861 45.905 41.3243L48.7837 28.0332C48.884 27.5724 48.5869 27.1181 48.1202 27.0189C47.6536 26.9207 47.1953 27.2146 47.0951 27.6753L44.2164 40.9665ZM42.3132 30.0988C41.9759 29.765 41.4286 29.765 41.0913 30.0988L37.253 33.8963C36.9157 34.23 36.9157 34.7705 37.253 35.1043L41.0913 38.9018C41.4286 39.2355 41.9759 39.2355 42.3132 38.9018C42.6506 38.568 42.6506 38.0275 42.3132 37.6937L39.0851 34.4999L42.3132 31.3069C42.6506 30.9731 42.6506 30.4326 42.3132 30.0988V30.0988ZM50.6868 30.0988C51.0241 29.765 51.5714 29.765 51.9087 30.0988L55.747 33.8963C56.0843 34.23 56.0843 34.7705 55.747 35.1043L51.9087 38.9018C51.5714 39.2355 51.0241 39.2355 50.6868 38.9018C50.3494 38.568 50.3494 38.0275 50.6868 37.6937L53.9149 34.4999L50.6868 31.3069C50.3494 30.9731 50.3494 30.4326 50.6868 30.0988V30.0988Z" fill="white"/>
<rect x="20" y="69" width="54" height="29" rx="14.5" fill="#848484"/>
<path fill-rule="evenodd" clip-rule="evenodd" d="M44.2164 89.9665C44.1161 90.4282 44.4132 90.8825 44.8799 90.9807C45.3465 91.0799 45.8057 90.7861 45.905 90.3243L48.7837 77.0332C48.884 76.5724 48.5869 76.1181 48.1202 76.0189C47.6536 75.9207 47.1953 76.2146 47.0951 76.6753L44.2164 89.9665ZM42.3132 79.0988C41.9759 78.765 41.4286 78.765 41.0913 79.0988L37.253 82.8963C36.9157 83.23 36.9157 83.7705 37.253 84.1043L41.0913 87.9018C41.4286 88.2355 41.9759 88.2355 42.3132 87.9018C42.6506 87.568 42.6506 87.0275 42.3132 86.6937L39.0851 83.4999L42.3132 80.3069C42.6506 79.9731 42.6506 79.4326 42.3132 79.0988V79.0988ZM50.6868 79.0988C51.0241 78.765 51.5714 78.765 51.9087 79.0988L55.747 82.8963C56.0843 83.23 56.0843 83.7705 55.747 84.1043L51.9087 87.9018C51.5714 88.2355 51.0241 88.2355 50.6868 87.9018C50.3494 87.568 50.3494 87.0275 50.6868 86.6937L53.9149 83.4999L50.6868 80.3069C50.3494 79.9731 50.3494 79.4326 50.6868 79.0988V79.0988Z" fill="white"/>
</svg>
