<svg width="94" height="118" viewBox="0 0 94 118" fill="none" xmlns="http://www.w3.org/2000/svg">
<rect x="0.5" y="0.5" width="93" height="117" rx="4.5" stroke="#8A38F5" stroke-dasharray="10 5"/>
<rect x="20" y="20" width="54" height="29" rx="14.5" fill="#00B2F3"/>
<path fill-rule="evenodd" clip-rule="evenodd" d="M42.3681 28.0356V26.522L40.5332 28.3181H42.0796C42.2376 28.3181 42.3681 28.1904 42.3681 28.0357L42.3681 28.0356ZM43.1225 26H53.1428C53.6125 26 54 26.3756 54 26.839V43.1602C54 43.3908 53.9041 43.6011 53.7483 43.7536L53.7475 43.7529C53.5917 43.9054 53.3776 44 53.1428 44H40.858C40.3883 44 40.0008 43.6244 40.0008 43.161L40 29.0571H42.0797C42.6537 29.0571 43.1226 28.5989 43.1226 28.0363L43.1225 26ZM47.9183 29.7962H45.5178V30.7734H47.9192L47.9183 29.7962ZM47.8078 34.5555L46.7181 33.4889L45.6284 34.5555L46.7181 35.6221L47.8078 34.5555ZM47.4019 38.6133C46.801 38.0251 45.7511 38.4353 45.7511 39.2841C45.7511 40.1291 46.7963 40.5452 47.4019 39.9533C47.7794 39.583 47.7794 38.9821 47.4019 38.6133ZM48.3972 38.9145C47.9981 37.1785 45.4395 37.1665 45.0381 38.9145H43.4848V34.9243H44.9383L46.4509 36.4049C46.5982 36.5491 46.8369 36.5491 46.9842 36.4049L48.4968 34.9243H50.2818C50.4898 34.9243 50.6594 34.7591 50.6594 34.5548V30.2845C50.6594 30.081 50.4906 29.915 50.2818 29.915H48.6726C48.6726 29.5852 48.7585 29.0571 48.295 29.0571L45.14 29.0579C44.932 29.0579 44.7624 29.2231 44.7624 29.4274V31.1431C44.7624 31.3466 44.9313 31.5126 45.14 31.5126H48.2955C48.759 31.5126 48.6731 30.9846 48.6731 30.6548H49.9055V34.1866H48.4981L46.9855 32.7061C46.8381 32.5619 46.5995 32.5619 46.4521 32.7061L44.9395 34.1866L43.1069 34.1859C42.8989 34.1859 42.7293 34.3511 42.7293 34.5555V39.284C42.7293 39.4876 42.8981 39.6536 43.1069 39.6536H45.0378C45.433 41.373 47.9946 41.415 48.3969 39.6536H50.2816C50.7781 39.6536 50.7781 38.9152 50.2816 38.9152L48.3972 38.9145Z" fill="white"/>
<rect x="20" y="69" width="54" height="29" rx="14.5" fill="#848484"/>
<path fill-rule="evenodd" clip-rule="evenodd" d="M42.3681 77.0356V75.522L40.5332 77.3181H42.0796C42.2376 77.3181 42.3681 77.1904 42.3681 77.0357L42.3681 77.0356ZM43.1225 75H53.1428C53.6125 75 54 75.3756 54 75.839V92.1602C54 92.3908 53.9041 92.6011 53.7483 92.7536L53.7475 92.7529C53.5917 92.9054 53.3776 93 53.1428 93H40.858C40.3883 93 40.0008 92.6244 40.0008 92.161L40 78.0571H42.0797C42.6537 78.0571 43.1226 77.5989 43.1226 77.0363L43.1225 75ZM47.9183 78.7962H45.5178V79.7734H47.9192L47.9183 78.7962ZM47.8078 83.5555L46.7181 82.4889L45.6284 83.5555L46.7181 84.6221L47.8078 83.5555ZM47.4019 87.6133C46.801 87.0251 45.7511 87.4353 45.7511 88.2841C45.7511 89.1291 46.7963 89.5452 47.4019 88.9533C47.7794 88.583 47.7794 87.9821 47.4019 87.6133ZM48.3972 87.9145C47.9981 86.1785 45.4395 86.1665 45.0381 87.9145H43.4848V83.9243H44.9383L46.4509 85.4049C46.5982 85.5491 46.8369 85.5491 46.9842 85.4049L48.4968 83.9243H50.2818C50.4898 83.9243 50.6594 83.7591 50.6594 83.5548V79.2845C50.6594 79.081 50.4906 78.915 50.2818 78.915H48.6726C48.6726 78.5852 48.7585 78.0571 48.295 78.0571L45.14 78.0579C44.932 78.0579 44.7624 78.2231 44.7624 78.4274V80.1431C44.7624 80.3466 44.9313 80.5126 45.14 80.5126H48.2955C48.759 80.5126 48.6731 79.9846 48.6731 79.6548H49.9055V83.1866H48.4981L46.9855 81.7061C46.8381 81.5619 46.5995 81.5619 46.4521 81.7061L44.9395 83.1866L43.1069 83.1859C42.8989 83.1859 42.7293 83.3511 42.7293 83.5555V88.284C42.7293 88.4876 42.8981 88.6536 43.1069 88.6536H45.0378C45.433 90.373 47.9946 90.415 48.3969 88.6536H50.2816C50.7781 88.6536 50.7781 87.9152 50.2816 87.9152L48.3972 87.9145Z" fill="white"/>
</svg>
