<svg width="18" height="18" viewBox="0 0 18 18" fill="none" xmlns="http://www.w3.org/2000/svg">
<circle cx="9" cy="9" r="8.75" stroke="white" stroke-width="0.5"/>
<path d="M12.8095 8.64846C12.9365 8.64846 13 8.7118 13 8.83848V9.33254C13 9.45922 12.9365 9.52257 12.8095 9.52257H9.51429C9.46349 9.52257 9.4381 9.5479 9.4381 9.59857V12.81C9.4381 12.9367 9.3746 13 9.24762 13H8.75238C8.6254 13 8.5619 12.9367 8.5619 12.81V9.59857C8.5619 9.5479 8.53651 9.52257 8.48571 9.52257H5.19048C5.06349 9.52257 5 9.45922 5 9.33254V8.83848C5 8.7118 5.06349 8.64846 5.19048 8.64846H8.48571C8.53651 8.64846 8.5619 8.62312 8.5619 8.57245V5.19002C8.5619 5.06334 8.6254 5 8.75238 5H9.24762C9.3746 5 9.4381 5.06334 9.4381 5.19002V8.57245C9.4381 8.62312 9.46349 8.64846 9.51429 8.64846H12.8095Z" fill="white"/>
</svg>
