<svg width="20" height="12" viewBox="0 0 20 12" fill="none" xmlns="http://www.w3.org/2000/svg">
<path fill-rule="evenodd" clip-rule="evenodd" d="M10 0C16.0489 0 20 6 20 6C20 6 16.0489 12 10 12C3.95111 12 0 6 0 6C0 6 3.95111 0 10 0ZM10 1.71429C12.4556 1.71429 14.4444 3.63214 14.4444 6C14.4444 8.36786 12.4556 10.2857 10 10.2857C7.54444 10.2857 5.55556 8.36786 5.55556 6C5.55556 3.63214 7.54444 1.71429 10 1.71429ZM10 3.64286C11.3511 3.64286 12.4444 4.69713 12.4444 6C12.4444 7.30288 11.3511 8.35714 10 8.35714C8.65111 8.35714 7.55556 7.30288 7.55556 6C7.55556 4.69713 8.64887 3.64286 10 3.64286Z" fill="white"/>
</svg>
