<svg width="19" height="22" viewBox="0 0 19 22" fill="none" xmlns="http://www.w3.org/2000/svg">
<path d="M1.125 15.8389L8.8584 20.3506V16.5127C7.37781 15.6487 5.89707 14.7849 4.41406 13.9209L1.125 15.8389ZM9.54492 16.5127V20.3506L17.2754 15.8398L13.9863 13.9209L9.54492 16.5127ZM4.75586 13.3271L8.85645 15.7197V10.9307L4.75586 8.53809V13.3271ZM9.54199 10.9307V15.7197L13.6426 13.3271V8.53809L9.54199 10.9307ZM14.3281 8.1377V13.3242L17.6152 15.2422V6.21973L14.3281 8.1377ZM0.786133 15.2412L4.07324 13.3232V8.13477L0.786133 6.21582V15.2412ZM5.09277 7.94141L9.19727 10.334L13.3018 7.94141L9.19727 5.54883L5.09277 7.94141ZM1.12305 5.62305L4.41309 7.54102C5.89324 6.67725 7.37379 5.81398 8.85645 4.9502V1.11133L1.12305 5.62305ZM9.54199 4.94922L13.9863 7.54102L17.2764 5.62305L9.54199 1.11133V4.94922ZM18.2998 16.0381L18.251 16.0674L9.25098 21.3174L9.2002 21.3477L9.14941 21.3174C6.14877 19.5668 3.14757 17.818 0.149414 16.0674L0.100586 16.0381V5.42383L0.149414 5.39453L9.14941 0.145508L9.2002 0.116211L9.25 0.144531L9.37012 0.213867L18.251 5.39453L18.2998 5.42383V16.0381Z" fill="white" stroke="white" stroke-width="0.2"/>
</svg>
