<svg width="19" height="15" viewBox="0 0 19 15" fill="none" xmlns="http://www.w3.org/2000/svg">
<path fill-rule="evenodd" clip-rule="evenodd" d="M7.2164 13.9665C7.11613 14.4282 7.41319 14.8825 7.87986 14.9807C8.34652 15.0799 8.80568 14.7861 8.90501 14.3243L11.7837 1.0332C11.884 0.572421 11.5869 0.118128 11.1202 0.0189392C10.6536 -0.0793361 10.1953 0.21456 10.0951 0.675347L7.2164 13.9665ZM5.31321 3.0988C4.97586 2.76504 4.42861 2.76504 4.09126 3.0988L0.25301 6.89627C-0.0843366 7.23003 -0.0843366 7.77054 0.25301 8.1043L4.09126 11.9018C4.42861 12.2355 4.97586 12.2355 5.31321 11.9018C5.65055 11.568 5.65055 11.0275 5.31321 10.6937L2.08508 7.49991L5.31321 4.30687C5.65055 3.97311 5.65055 3.43261 5.31321 3.09884V3.0988ZM13.6868 3.0988C14.0241 2.76504 14.5714 2.76504 14.9087 3.0988L18.747 6.89627C19.0843 7.23003 19.0843 7.77054 18.747 8.1043L14.9087 11.9018C14.5714 12.2355 14.0241 12.2355 13.6868 11.9018C13.3494 11.568 13.3494 11.0275 13.6868 10.6937L16.9149 7.49991L13.6868 4.30687C13.3494 3.97311 13.3494 3.43261 13.6868 3.09884V3.0988Z" fill="white"/>
</svg>
