<svg width="14" height="18" viewBox="0 0 14 18" fill="none" xmlns="http://www.w3.org/2000/svg">
<path fill-rule="evenodd" clip-rule="evenodd" d="M2.36814 2.03562V0.522037L0.533205 2.31809H2.07956C2.23765 2.31809 2.36811 2.19039 2.36811 2.03565L2.36814 2.03562ZM3.12252 0H13.1428C13.6125 0 14 0.375587 14 0.839038V17.1602C14 17.3908 13.9041 17.6011 13.7483 17.7536L13.7475 17.7529C13.5917 17.9054 13.3776 18 13.1428 18H0.857972C0.388301 18 0.000767422 17.6244 0.000767422 17.161L0 3.05713H2.07969C2.65372 3.05713 3.12262 2.59892 3.12262 2.03631L3.12252 0ZM7.91833 3.79616H5.51776V4.77341H7.91915L7.91833 3.79616ZM7.80783 8.5555L6.71809 7.48886L5.62836 8.5555L6.71809 9.62214L7.80783 8.5555ZM7.40186 12.6133C6.80097 12.0251 5.7511 12.4353 5.7511 13.2841C5.7511 14.1291 6.79633 14.5452 7.40186 13.9533C7.77942 13.583 7.77942 12.9821 7.40186 12.6133ZM8.39721 12.9145C7.99815 11.1785 5.4395 11.1665 5.03807 12.9145H3.4848V8.92434H4.9383L6.45089 10.4049C6.59824 10.5491 6.8369 10.5491 6.98425 10.4049L8.49684 8.92434H10.2818C10.4898 8.92434 10.6594 8.75909 10.6594 8.55478V4.28451C10.6594 4.08095 10.4906 3.91495 10.2818 3.91495H8.67256C8.67256 3.58519 8.75851 3.05713 8.295 3.05713L5.14001 3.05788C4.93204 3.05788 4.76245 3.22313 4.76245 3.42745V5.14305C4.76245 5.34661 4.93127 5.51261 5.14001 5.51261H8.29549C8.759 5.51261 8.67305 4.98455 8.67305 4.65479H9.90553V8.18664H8.49807L6.98548 6.7061C6.83813 6.56188 6.59946 6.56188 6.45212 6.7061L4.93952 8.18664L3.10688 8.18589C2.89891 8.18589 2.72932 8.35114 2.72932 8.55545V13.284C2.72932 13.4876 2.89814 13.6536 3.10688 13.6536H5.03775C5.43298 15.373 7.99464 15.415 8.39689 13.6536H10.2816C10.7781 13.6536 10.7781 12.9152 10.2816 12.9152L8.39721 12.9145Z" fill="white"/>
</svg>
